<mxfile host="app.diagrams.net" modified="2024-11-09T21:46:01.978Z" agent="Mozilla/5.0 (Windows NT 10.0; Win64; x64) AppleWebKit/537.36 (KHTML, like Gecko) Chrome/130.0.0.0 Safari/537.36" version="21.2.3" etag="iegSL-TGKP7pATx1pWWb" type="github">
  <diagram name="PÃ¡gina-1" id="wvItbT6RyoRtT2y1fZGn">
    <mxGraphModel>
      <root>
        <mxCell id="0" />
        <mxCell id="1" parent="0" />
      </root>
    </mxGraphModel>
  </diagram>
</mxfile>
